PathFileType	4	(X/Y/Z)	39_1_51_p1_0-503_filt_butterworth.trc
DataRate	CameraRate	NumFrames	NumMarkers	Units	OrigDataRate	OrigDataStartFrame	OrigNumFrames
59.0	59.0	6	27	m	59.0	0	503
Frame#	Time	RHip			RKnee			RAnkle			RBigToe			RSmallToe			RHeel			LHip			LKnee			LAnkle			LBigToe			LSmallToe			LHeel			Neck			Head			Nose			RShoulder			RElbow			RWrist			RThumb			RIndex			RPinky			LShoulder			LElbow			LWrist			LThumb			LIndex			LPinky			
		X1	Y1	Z1	X2	Y2	Z2	X3	Y3	Z3	X4	Y4	Z4	X5	Y5	Z5	X6	Y6	Z6	X7	Y7	Z7	X8	Y8	Z8	X9	Y9	Z9	X10	Y10	Z10	X11	Y11	Z11	X12	Y12	Z12	X13	Y13	Z13	X14	Y14	Z14	X15	Y15	Z15	X16	Y16	Z16	X17	Y17	Z17	X18	Y18	Z18	X19	Y19	Z19	X20	Y20	Z20	X21	Y21	Z21	X22	Y22	Z22	X23	Y23	Z23	X24	Y24	Z24	X25	Y25	Z25	X26	Y26	Z26	X27	Y27	Z27	
0	0.0	0.2983210607661377	0.6887020871223403	0.48893704000650084	0.2720417875811343	0.7546025185683651	0.9377882169936773	0.23728048751975994	0.8425300616754462	1.3195557974824108	0.22526057431576899	0.6639914098075341	1.3475272960398201	0.2896095239393505	0.6681539949762707	1.347932243646215	0.20350568259075896	0.9503659688691941	1.3813020846308306	0.07827774815729793	0.6928378311019424	0.48494659576938554	0.05026934945967452	0.7569320677832199	0.9076761178340738	0.038684545946173085	0.8218175988534046	1.3016368633089495	0.06752572447795109	0.6394731952085024	1.3205287752026422	0.007468354929371996	0.6785663817154005	1.3288268694014167	0.04578337639760746	0.8801350933207436	1.3681336312927483	0.23864381729176098	0.6134750103039598	-0.0628353785521976	0.25673202950408036	0.5355802750950731	-0.29579477389800307	0.25284235594583504	0.509872753790972	-0.16992936422610616	0.3934726163038166	0.6242591348166774	0.029422730665523943	0.3760084118014266	0.6117189199253272	0.29180230615732755	0.2499862116893141	0.4859835508839862	0.4591695886256963	0.1367263731121119	0.42696669181922525	0.5144598177021751	0.14338292937131905	0.4311722827487282	0.5351302044283124	0.17799164345156743	0.488294655868047	0.5956527844595841	0.07687289325000676	0.6424670236097607	0.018940126520077632	0.04934363300834856	0.5861331424317899	0.2675491747086357	0.15497033591922638	0.44719598753472795	0.45420805432456984	0.18150362385480484	0.47459189378689787	0.5385762394318073	0.18123190582835857	0.4744888882988016	0.573685276145349	0.1691817190631723	0.43268602729029276	0.5653648687745696
1	0.0169491525423728	0.29986822274183295	0.6836750195435681	0.48904931775320304	0.2712879159293106	0.7555033035990342	0.9392934040978849	0.23721897111463128	0.842556358664863	1.3197599703477125	0.22518792072134106	0.6639222491692242	1.3475843869505513	0.28958894146298964	0.6681196856635047	1.3480003390568958	0.20377055407371913	0.9497320021073621	1.383143634620575	0.0779119520058028	0.693364290049266	0.48436201772227094	0.050296600155169346	0.7560618811487226	0.9058693535509317	0.03962643830230708	0.8211846707616653	1.2987640049436346	0.06764752796990002	0.6391343741179518	1.3215932148122538	0.008572505605460287	0.678053543969949	1.3305801929400685	0.04905947909408952	0.881519012721337	1.364460923121895	0.238655393293747	0.6133859608593495	-0.06290002478132092	0.2567375915351735	0.5355572489069388	-0.29584302186263034	0.251246136254206	0.5027312063976548	-0.16974790482990487	0.3932724554867141	0.6233335683997505	0.02728137013446697	0.37866568933417755	0.6029908962215391	0.28981995679916606	0.24999767314678123	0.4859398269509981	0.45920815518554287	0.13791821065665172	0.4342239678483144	0.5150576563289193	0.14463017528681468	0.4385206883949301	0.5385642659201736	0.17794580753153388	0.4882679569733773	0.595611412451002	0.07696334801322777	0.6415925073991082	0.016649315231537	0.049503228028635465	0.5848186806785048	0.26295213739003676	0.155277656386269	0.4358486984879104	0.4519351569069389	0.18140468480377117	0.4813613409695502	0.5391147445263118	0.1813848178513696	0.4829277032803735	0.5731938878742325	0.16800596068149629	0.4336634406073765	0.5676378125323934
2	0.0338983050847457	0.3010554585437883	0.6799336055641294	0.4888052408883309	0.2709287413665856	0.7560721328157047	0.9404126676748426	0.23725680149212927	0.8426020878540029	1.319950261003784	0.225143129130458	0.66389868346462	1.3476208379583063	0.2895810945355247	0.6680781387030736	1.3480308586543208	0.20391751935369995	0.9492727376299753	1.3838119307405148	0.07772453413733722	0.6936230112296485	0.4843728344247849	0.05027808075709606	0.7556494829679165	0.9050629602230237	0.040183037849022635	0.820791081591021	1.2970405220957058	0.06771357107174863	0.6389787272129657	1.3220127638753536	0.009186796343964097	0.6775138226019735	1.3308666205935504	0.050148785400465606	0.8813764935846977	1.3621993593316828	0.23866026829928863	0.6133266871770302	-0.06295399541979613	0.2567463014306863	0.5355473978554302	-0.29587442197244673	0.25030730676929164	0.4984957857075805	-0.16964180968199988	0.39316204536531657	0.622782554941529	0.026030917669555315	0.3802178750722293	0.5977989574154747	0.2891269623275035	0.2500413010596607	0.48588252024166256	0.45923071071157334	0.13855435770170305	0.4385855001313347	0.5157959599974028	0.14561929969101128	0.44452832939727854	0.5412897509982625	0.1779346250534222	0.48805950395473685	0.5955774747183702	0.07701552322940641	0.6410758898903972	0.015289134846374954	0.04957751116233792	0.5840910937680484	0.260215869927798	0.15610042919289302	0.4274930920662921	0.45038685733034706	0.18134566297686694	0.48540197675965685	0.5396005056050819	0.18104245051771803	0.48793272288821976	0.5728787692508824	0.16726562174348414	0.43420657011610453	0.569621150183672
3	0.0508474576271186	0.3020583454174522	0.676965679731038	0.48796280075481435	0.27097546532112066	0.7563984639655525	0.9413412609403381	0.23772351093216837	0.8428061291861093	1.3200932008813804	0.22513450704668522	0.6638993227865182	1.347621676802247	0.28959317805338775	0.6680394490506933	1.3480175570293134	0.203938107489912	0.9491050419955553	1.383670798061229	0.07779780648157461	0.69351491714154	0.4847431296320619	0.05027029107433469	0.7558210306582209	0.905531674150262	0.04033417666984147	0.8206457064435297	1.296544754022617	0.06772131572777422	0.6391256432929829	1.3216024430179933	0.009310852184536028	0.6770718305332237	1.3300747167818348	0.04900841931837422	0.8798739610450799	1.361820243973195	0.23865981127187857	0.6133028835375868	-0.06299932121330935	0.25675785836679205	0.5355583383576082	-0.29588843414856913	0.2500651069784642	0.49734697661070404	-0.1696153019422397	0.3931418599469899	0.6226498471336922	0.02571488338805435	0.38061634723362286	0.5964371797651733	0.28947275706162284	0.25015626949317016	0.48579866558589563	0.4592259555092708	0.13864809254110505	0.4403500611887169	0.5164636904713762	0.14655268668661803	0.4506013482243986	0.5436867412414649	0.17804249512604112	0.4876718707228072	0.595608338517256	0.0770309678549302	0.6409369045073261	0.01491488466979141	0.04958260205384165	0.5839238125528291	0.2594524812591738	0.15703637420870942	0.4234474356955418	0.44969998761339425	0.18136225093093933	0.48653705843071177	0.5400868538729013	0.18052127090676898	0.4893232519405038	0.5727317592587592	0.1669108120645687	0.4343053553468226	0.5707436755810906
4	0.0677966101694915	0.30284896734215516	0.6746395518611049	0.4870014322334833	0.27102148867844356	0.756640803503623	0.9421207703970169	0.23891210842046723	0.8433144259923655	1.3202006616794137	0.22514826225286055	0.6638522074846968	1.3475794782823372	0.28961126826537564	0.6680147276684235	1.3479861444324033	0.20389336464960753	0.949248283524356	1.3835582841557703	0.07802478378819432	0.6931253886284097	0.48503274344822056	0.05034930468629688	0.7562361687878106	0.9064864785137826	0.04029446309712146	0.820624154966749	1.2966386700749992	0.06772342740607919	0.6395345487852899	1.3209361929580372	0.009236775001076766	0.676790738011395	1.3292907208927018	0.047132050844264306	0.878392940316466	1.3625725424576165	0.2386583029929321	0.6133034468608072	-0.0630397525867655	0.25676785670289815	0.5355904876885803	-0.295891537810688	0.25013980070284314	0.49760919108897295	-0.16962589965000008	0.39315371236913466	0.6227491762211735	0.025824268640092993	0.3804947748650311	0.5969366385114794	0.28992339386700433	0.25027066969323764	0.4856952294304089	0.45920601240692693	0.1388056432224073	0.44189962810235117	0.5171015571959247	0.14769451084157875	0.4580350212219314	0.5461945206946057	0.1783715660592914	0.4876218627779786	0.5958365272722936	0.07703436427266593	0.640969287308878	0.014998911657364528	0.04957658862277611	0.5839096260556272	0.2595986010427344	0.15757591209204125	0.42261157335948074	0.44906526693761006	0.18147837882015144	0.4862905714047444	0.5406844049354677	0.180285996938772	0.4890568534277585	0.5726812199646585	0.16663559960346552	0.43421865867136744	0.570269199559483
5	0.0847457627118644	0.30319425141614037	0.6735047231913458	0.4865203377063121	0.27056228116470254	0.7567028866537263	0.9424952599168779	0.2405109383519827	0.8440145838913762	1.3203253936214507	0.22516006448425732	0.6637413198405108	1.3475147258089608	0.2896140713279727	0.6679981596363064	1.3479612258630573	0.2038404645270738	0.9495448069361938	1.383551061863321	0.07821650365195577	0.6926527384673672	0.48514877619590413	0.05049464265587236	0.7565051554077097	0.9070690796431831	0.04023180744345339	0.8206254429235259	1.2968030008555567	0.0677507207265907	0.6400155195135053	1.3206204487785156	0.009167123314628422	0.6766038696681272	1.3288956167881447	0.045773166215951025	0.8777945237771136	1.3633259384206031	0.2386565519527177	0.6133167677200037	-0.0630706906170381	0.2567728996577272	0.5356304310805298	-0.2958880274013017	0.25021989161976904	0.497888168287124	-0.1696391195144542	0.3931575627345697	0.6228869428004553	0.02596268667223471	0.38033399462060513	0.5976138225309221	0.29008145400036905	0.250030329954924	0.4856509904782191	0.4592203538477969	0.13983571799530262	0.444725320940295	0.5182855554599971	0.14899822995535736	0.4650558831479071	0.5484875366333419	0.17895562139755872	0.48904838131346595	0.5962409904173801	0.07703871008995995	0.6410143057347835	0.015122670507108298	0.049575045379459115	0.5838248862131781	0.2598187315524219	0.1578035350052855	0.42280294233734445	0.4472111819679732	0.1816547363691164	0.48589187539662365	0.5412830249361744	0.18032954433246684	0.48866233446095625	0.5728032141632557	0.16636971459683897	0.43413826773761593	0.5682533562814952
